<svg xmlns="http://www.w3.org/2000/svg" width="400" height="400" viewBox="0 0 200 200"><linearGradient id="a" gradientUnits="userSpaceOnUse" x1="95.707" y1="160.61" x2="99.161" y2="193.481"><stop offset="0" stop-color="#fff"/><stop offset=".473" stop-color="#fff"/><stop offset=".5" stop-color="#F7F7F7"/><stop offset=".594" stop-color="#E2E2E2"/><stop offset=".698" stop-color="#D3D3D3"/><stop offset=".82" stop-color="#CACACA"/><stop offset="1" stop-color="#C7C7C7"/></linearGradient><path fill-rule="evenodd" clip-rule="evenodd" fill="url(#a)" stroke="#BABABA" stroke-width=".703" stroke-linejoin="round" stroke-miterlimit="10" d="M51.405 165.267s29.283 3.155 56.02 3.812c6.388.155 26.026 1.026 30.753.648 5.272-.423 8.493-1.186 10.427-3.762 2.169-2.892-5.232 14.183-5.232 14.183s-13.012 6.619-36.544 11.402c-19.207 3.903-57.5 7.03-59.876 6.577-.894-.169 4.452-32.86 4.452-32.86z"/><ellipse clip-rule="evenodd" stroke="#010202" stroke-width=".469" stroke-miterlimit="10" cx="137.659" cy="159.162" rx="4.802" ry="4.122" fill="none"/><ellipse clip-rule="evenodd" stroke="#010202" stroke-width=".469" stroke-miterlimit="10" cx="122.961" cy="155.979" rx="4.802" ry="4.121" fill="none"/><path fill="#294596" d="M77.087 175.132c2.89.064 5.78.099 8.669.12l8.667.082c5.778.026 11.555.049 17.33-.064 5.775-.061 11.549-.243 17.312-.575 2.882-.164 5.761-.385 8.628-.703 1.435-.15 2.868-.326 4.294-.549.711-.118 1.43-.22 2.126-.392.349-.087.694-.192 1.023-.337.314-.151.677-.317.822-.656-.132.347-.493.53-.804.695-.327.159-.671.279-1.019.381-.7.202-1.411.331-2.119.478-1.42.279-2.849.514-4.282.721-2.868.391-5.75.671-8.634.901-5.771.445-11.556.622-17.338.737-5.784.056-11.567.044-17.348-.099l-8.668-.278c-2.886-.136-5.773-.284-8.659-.462z"/><path fill-rule="evenodd" clip-rule="evenodd" fill="#D0A673" d="M73.111 157.937l-24.855 6.237 3.148 1.038s29.861 2.366 36.73 2.599c17.398.587 39.354 1.684 42.667 1.727 3.252.045 16.596.615 18.295-4.663 1.421-4.411-12.529-4.939-12.529-4.939s-17.268-4.663-23.963-5.199c-6.695-.537-31.218.164-39.493 3.2z"/><linearGradient id="b" gradientUnits="userSpaceOnUse" x1="89.493" y1="160.672" x2="146.111" y2="160.672"><stop offset="0" stop-color="#fff"/><stop offset=".473" stop-color="#fff"/><stop offset=".5" stop-color="#F7F7F7"/><stop offset=".594" stop-color="#E2E2E2"/><stop offset=".698" stop-color="#D3D3D3"/><stop offset=".82" stop-color="#CACACA"/><stop offset="1" stop-color="#C7C7C7"/></linearGradient><path fill-rule="evenodd" clip-rule="evenodd" fill="url(#b)" stroke="#BABABA" stroke-width=".703" stroke-linejoin="round" stroke-miterlimit="10" d="M117.257 165.843c2.3 1.11 18.27 1.024 21.149.479 2.879-.545 5.545-.921 7.183-1.661 1.638-.739-1.101-2.707-1.101-2.707l-17.148-4.494s-9.281-3.744-17.796-2.616c-6.949.92-20.051 2.712-20.051 2.712s25.463 7.175 27.764 8.287z"/><linearGradient id="c" gradientUnits="userSpaceOnUse" x1="97.303" y1="159.047" x2="141.166" y2="159.047"><stop offset="0" stop-color="#fff"/><stop offset=".473" stop-color="#fff"/><stop offset=".5" stop-color="#F7F7F7"/><stop offset=".594" stop-color="#E2E2E2"/><stop offset=".698" stop-color="#D3D3D3"/><stop offset=".82" stop-color="#CACACA"/><stop offset="1" stop-color="#C7C7C7"/></linearGradient><path fill-rule="evenodd" clip-rule="evenodd" fill="url(#c)" stroke="#BABABA" stroke-width=".703" stroke-linejoin="round" stroke-miterlimit="10" d="M119.049 162.346c2.256.629 8.714.639 13.808.234 4.807-.38 6.206-.266 7.662-.899 1.455-.631 0-1.218 0-1.218l-14.384-3.497s-9.54-2.521-17.066-1.471c-6.141.857-11.766.017-11.766.017s19.63 6.243 21.746 6.834z"/><path fill-rule="evenodd" clip-rule="evenodd" fill="#fff" stroke="#BABABA" stroke-width=".703" stroke-linejoin="round" stroke-miterlimit="10" d="M51.405 165.098l-3.315-1.093-2.7 33.672 1.171.541z"/><path clip-rule="evenodd" stroke="#010202" stroke-width="1.171" stroke-linecap="round" stroke-linejoin="round" stroke-miterlimit="10" d="M52.482 162.303s2.458-13.768 3.896-15.212c.621-.624 1.395-.895 2.896-.642 1.244.21.595 8.736.771 10.738.147 1.668-.173 3.73-.173 3.73" fill="none"/><path clip-rule="evenodd" stroke="#EBF4F9" stroke-width=".469" stroke-linecap="round" stroke-miterlimit="10" d="M59.61 147.413c.49 2.325.098 8.162.239 9.774.146 1.668-.173 3.73-.173 3.73M52.397 162.303s2.458-13.768 3.896-15.212" fill="none"/><path clip-rule="evenodd" stroke="#010202" stroke-width=".703" stroke-linecap="round" stroke-linejoin="round" stroke-miterlimit="10" d="M145.032 160.802s.612-2.534.82-2.759c.364-.392.871-.509 1.382-.331.512.176 3.088 1.672 3.088 1.672l-1.12 4.479" fill="none"/><path clip-rule="evenodd" stroke="#EBF4F9" stroke-width=".469" stroke-linecap="round" stroke-miterlimit="10" d="M144.781 160.802s.612-2.534.82-2.759c.364-.392.871-.509 1.383-.331.511.176 3.088 1.672 3.088 1.672l-1.12 4.479" fill="none"/><path fill-rule="evenodd" clip-rule="evenodd" fill="#010202" stroke="#646463" stroke-width=".703" stroke-linejoin="round" stroke-miterlimit="10" d="M125.326 176.91l-7.501.681 1.148-3.303 7.496-.075z"/><path fill-rule="evenodd" clip-rule="evenodd" fill="#010202" stroke="#646463" stroke-width=".469" stroke-linejoin="round" stroke-miterlimit="10" d="M140.837 174.66l-3.07.497.575-1.956 3.083-.272z"/><path clip-rule="evenodd" stroke="#C1854E" stroke-width=".234" stroke-miterlimit="10" d="M55.396 164.157s41.813 2.641 44.913 2.737c4.038.128 19.117.853 19.117.853s17.226.934 23.282-.498c2.213-.522 3.724-.764 4.527-2.779M61.126 163.553s49.995 2.787 51.723 2.468M66.76 162.625s41.263 2.503 42.75 2.229M73.035 162.122s31.614 1.722 32.745 1.503M79.543 161.658s22.187.971 22.973.817M55.33 163.871s21.022-5.043 22.107-5.599M61.092 163.401s17.91-4.209 18.994-4.766M66.76 162.625s16.286-3.271 17.37-3.83M73.102 162.143s16.286-3.272 17.37-3.83M79.511 161.523s12.816-2.049 13.654-2.473" fill="none"/><path fill-rule="evenodd" clip-rule="evenodd" fill="#144075" stroke="#242552" stroke-width=".469" stroke-linecap="round" stroke-linejoin="round" stroke-miterlimit="10" d="M53.585 164.408c-.218.411-3.122-.018-2.749-.78.123-.253.752-1.42.752-1.42s-.179-.059 1.059.472c1.237.531 1.676.477 1.676.477s-.647 1.078-.738 1.251z"/><ellipse transform="matrix(.946 .324 -.324 .946 55.62 -8.407)" fill-rule="evenodd" clip-rule="evenodd" fill="#010202" stroke="#020304" stroke-width=".469" stroke-linejoin="round" stroke-miterlimit="10" cx="53.053" cy="162.797" rx="2.733" ry=".467"/><path fill-rule="evenodd" clip-rule="evenodd" fill="#E3E6DD" d="M55.424 163.387c.224.319-3.421-.488-4.435-1.346-.325-.271.405-1.848.576-1.912.889-.34 4.87 1.722 4.87 1.722s-1.235 1.215-1.011 1.536z"/><ellipse transform="matrix(.946 .324 -.324 .946 55.118 -8.787)" fill-rule="evenodd" clip-rule="evenodd" fill="#010202" stroke="#020304" stroke-width=".469" stroke-linejoin="round" stroke-miterlimit="10" cx="53.918" cy="160.955" rx="2.732" ry=".466"/><g fill-rule="evenodd" clip-rule="evenodd" stroke="#727272" stroke-linejoin="round" stroke-miterlimit="10"><path fill="#9E9E9E" stroke-width=".703" d="M97.976 143.605c-2.329 7.305-4.479 14.359-5.112 17.218-.185.835.291 1.046.861 1.26 0 0 2.35.718 2.608-.221.548-2.001 2.146-10.338 4.386-17.361l41.493-130.096c3.057-9.583 3.542-10.274 2.786-10.52l-1.657-.394c-.756-.248-.813.438-3.87 10.021l-41.495 130.093z"/><path fill="#727272" stroke-width=".703" d="M100.107 144.321c-2.62 8.218-4.89 17.965-4.566 17.86.55-.004.792.207 1.053-.876.803-3.326 2.412-10.057 4.48-16.542l41.493-130.095c3.057-9.582 3.439-10.553 3.059-10.677 0 0-.357.83-3.415 10.413l-42.104 129.917z"/><path fill="#727272" stroke-width=".234" d="M146.016 3.992c-.042.187-.78.129-1.798-.101-1.018-.229-1.494-.361-1.452-.548.041-.187.612-.189 1.63.04 1.019.23 1.661.422 1.62.609z"/></g><linearGradient id="d" gradientUnits="userSpaceOnUse" x1="100.485" y1="78.121" x2="142.894" y2="78.121"><stop offset="0" stop-color="#fff"/><stop offset=".561" stop-color="#F8BF68"/><stop offset=".964" stop-color="#F39200"/></linearGradient><path fill-rule="evenodd" clip-rule="evenodd" fill="url(#d)" stroke="#ED6D13" stroke-width=".703" stroke-linejoin="round" stroke-miterlimit="10" d="M100.955 140.244c4.536 2.04 21.912 4.542 25.329 4.796 5.619.421 10.638.524 12.193-1.128 1.555-1.655 4.417-132.974 4.417-132.974s-47.617 126.751-41.939 129.306z"/><path clip-rule="evenodd" stroke="#ED6D16" stroke-width=".469" stroke-linejoin="round" stroke-miterlimit="10" d="M122.437 121.975c9.848 2.397 17.452 2.273 17.452 2.273M126.419 98.835c10.385 2.31 14.379 2.395 14.379 2.395M130.665 74.628c6.696 2.086 10.854 1.965 10.854 1.965" fill="none"/><path clip-rule="evenodd" stroke="#010202" stroke-width=".469" stroke-linecap="round" stroke-miterlimit="10" fill="none" d="M137.815 159.271l-3.998-2.133"/><path clip-rule="evenodd" stroke="#EBF4F9" stroke-width=".469" stroke-linecap="round" stroke-miterlimit="10" fill="none" d="M137.855 159.162l-3.998-2.133"/><path fill-rule="evenodd" clip-rule="evenodd" fill="#424242" stroke="#424242" stroke-width=".703" stroke-linejoin="round" stroke-miterlimit="10" d="M139.44 147.396c-1.367-.206-21.638-3.271-21.638-3.271l.409-2.704s20.723 2.839 21.638 3.272c.915.435.958 2.91-.409 2.703z"/><path fill-rule="evenodd" clip-rule="evenodd" fill="#BFBFC1" d="M139.209 146.126c-1.368-.206-21.639-3.271-21.639-3.271l.24-1.589s20.706 2.957 21.638 3.272c.934.316 1.128 1.795-.239 1.588z"/><linearGradient id="e" gradientUnits="userSpaceOnUse" x1="126.262" y1="164.373" x2="140.049" y2="164.373"><stop offset="0" stop-color="#312783"/><stop offset=".019" stop-color="#392D82"/><stop offset=".092" stop-color="#4E4180"/><stop offset=".171" stop-color="#5A507A"/><stop offset=".253" stop-color="#5A556F"/><stop offset=".34" stop-color="#524F5E"/><stop offset=".433" stop-color="#46444B"/><stop offset=".534" stop-color="#373639"/><stop offset=".647" stop-color="#222"/><stop offset=".783" stop-color="#0A0A0A"/><stop offset="1"/></linearGradient><path fill-rule="evenodd" clip-rule="evenodd" fill="url(#e)" stroke="#646463" stroke-width=".469" stroke-linejoin="round" stroke-miterlimit="10" d="M139.979 165.098c-.477.975-7.234 1.2-13.511 1.004-.756-.023.807-2.731.807-2.731l11.046-.79c.001-.001 2.136 1.542 1.658 2.517z"/><linearGradient id="f" gradientUnits="userSpaceOnUse" x1="127.743" y1="142.516" x2="127.3" y2="145.672"><stop offset="0" stop-color="#fff"/><stop offset=".034" stop-color="#FEF3E2"/><stop offset=".095" stop-color="#FBDEB3"/><stop offset=".162" stop-color="#F9CC88"/><stop offset=".232" stop-color="#F8BC63"/><stop offset=".308" stop-color="#F6AF44"/><stop offset=".39" stop-color="#F5A52B"/><stop offset=".481" stop-color="#F49C18"/><stop offset=".587" stop-color="#F3960A"/><stop offset=".719" stop-color="#F39302"/><stop offset=".964" stop-color="#F39200"/></linearGradient><path fill-rule="evenodd" clip-rule="evenodd" fill="url(#f)" stroke="#ED6D13" stroke-width=".703" stroke-linejoin="round" stroke-miterlimit="10" d="M137.66 147.128c-1.367-.207-21.655-3.081-21.655-3.081l.562-3.094s20.723 2.837 21.638 3.271c.914.435.822 3.109-.545 2.904z"/><path clip-rule="evenodd" stroke="#C1854E" stroke-width=".234" stroke-miterlimit="10" d="M116.511 166.167s-1.506.631-2.679.106c-.802-.359-16.881-5.603-16.881-5.603" fill="none"/><path fill-rule="evenodd" clip-rule="evenodd" fill="#EAEAEA" stroke="#BABABA" stroke-width=".234" stroke-linecap="round" stroke-miterlimit="10" d="M126.115 100.028l11.738 68.436"/><path fill-rule="evenodd" clip-rule="evenodd" fill="#EAEAEA" stroke="#A0A09F" stroke-width=".234" stroke-linecap="round" stroke-miterlimit="10" d="M125.921 100.032l11.739 68.436"/><path fill-rule="evenodd" clip-rule="evenodd" fill="#144075" stroke="#242552" stroke-width=".469" stroke-linecap="round" stroke-linejoin="round" stroke-miterlimit="10" d="M55.238 161.034c-.218.413-2.752-.687-2.658-.951.095-.266.753-1.42.753-1.42s-.18-.06 1.058.473c1.238.529 1.676.476 1.676.476s-.736 1.25-.829 1.422z"/><path fill-rule="evenodd" clip-rule="evenodd" fill="#D0A673" stroke="#C1854D" stroke-width=".234" stroke-miterlimit="10" d="M119.82 161.048s9.791-1.33 11.899-1.096c2.108.235-15.46-4.217-15.46-4.217l-8.355 1.622 11.916 3.691z"/><path clip-rule="evenodd" stroke="#C1854D" stroke-width=".234" stroke-linecap="round" stroke-miterlimit="10" d="M119.193 160.1s7.367-1.513 8.083-1.263M117.241 159.586s7.27-1.493 7.985-1.245M114.989 158.929s7.241-1.446 7.93-1.213M112.612 158.341s7.163-1.443 7.803-1.224M109.999 157.6s7.163-1.441 7.804-1.222" fill="none"/><path fill-rule="evenodd" clip-rule="evenodd" fill="#1B365F" stroke="#242552" stroke-width=".469" stroke-linecap="round" stroke-linejoin="round" stroke-miterlimit="10" d="M56.171 159.363c-.077.278-.773.328-1.553.111-.78-.215-1.35-.618-1.272-.896.077-.278.736-.225 1.516-.008.78.219 1.387.515 1.309.793z"/><linearGradient id="g" gradientUnits="userSpaceOnUse" x1="51.323" y1="167.125" x2="149.151" y2="167.125"><stop offset="0" stop-color="#C7C7C7"/><stop offset=".18" stop-color="#CACACA"/><stop offset=".302" stop-color="#D3D3D3"/><stop offset=".406" stop-color="#E2E2E2"/><stop offset=".499" stop-color="#F7F7F7"/><stop offset=".527" stop-color="#fff"/><stop offset="1" stop-color="#fff"/></linearGradient><path fill-rule="evenodd" clip-rule="evenodd" fill="url(#g)" stroke="#BABABA" stroke-width=".234" stroke-linejoin="round" stroke-miterlimit="10" d="M138.178 169.727c5.261-.551 8.63-.983 10.563-3.56.526-.703.352-.43-.006.691.49-.888.411-1.605.411-1.605s-.014-1.781-.619-.379c-.85 1.971-2.54 2.25-4.666 2.937-5.547 1.792-19.942.45-25.702.379-23.506-.292-66.478-3.315-66.478-3.315l-.358.624s29.365 2.924 56.102 3.58c6.388.154 24.782 1.272 30.753.648z"/><path fill-rule="evenodd" clip-rule="evenodd" fill="#0B426A" stroke="#073651" stroke-width=".937" stroke-linecap="round" stroke-miterlimit="10" d="M142.008 5.817l-87.271 152.906"/><g fill="#71A9D2"><path fill-rule="evenodd" clip-rule="evenodd" d="M141.785 5.773l-87.271 152.905"/><path d="M141.785 5.773l-10.81 19.17-10.873 19.134-21.749 38.264-21.886 38.188-10.945 19.092-11.008 19.057 10.809-19.17 10.873-19.133 21.75-38.265 21.887-38.188 10.944-19.092z"/></g><path fill-rule="evenodd" clip-rule="evenodd" fill="#060707" stroke="#D3D3D3" stroke-width=".469" stroke-linejoin="round" stroke-miterlimit="10" d="M76.689 161.523l8.314 2.226 8.444-.498-13.089-2.922z"/><linearGradient id="h" gradientUnits="userSpaceOnUse" x1="76.967" y1="161.644" x2="92.091" y2="161.644"><stop offset="0" stop-color="#312783"/><stop offset=".019" stop-color="#392D82"/><stop offset=".092" stop-color="#4E4180"/><stop offset=".171" stop-color="#5A507A"/><stop offset=".253" stop-color="#5A556F"/><stop offset=".34" stop-color="#524F5E"/><stop offset=".433" stop-color="#46444B"/><stop offset=".534" stop-color="#373639"/><stop offset=".647" stop-color="#222"/><stop offset=".783" stop-color="#0A0A0A"/><stop offset="1"/></linearGradient><path fill-rule="evenodd" clip-rule="evenodd" fill="url(#h)" stroke="#D3D3D3" stroke-width=".469" stroke-linejoin="round" stroke-miterlimit="10" d="M76.967 161.191l7.562 2.013 7.562-.43-11.225-2.69z"/><linearGradient id="i" gradientUnits="userSpaceOnUse" x1="60.198" y1="84.624" x2="141.785" y2="84.624"><stop offset="0" stop-color="#fff"/><stop offset=".473" stop-color="#fff"/><stop offset=".5" stop-color="#F7F7F7"/><stop offset=".594" stop-color="#E2E2E2"/><stop offset=".698" stop-color="#D3D3D3"/><stop offset=".82" stop-color="#CACACA"/><stop offset="1" stop-color="#C7C7C7"/></linearGradient><path fill-rule="evenodd" clip-rule="evenodd" fill="url(#i)" stroke="#BABABA" stroke-width=".703" stroke-linejoin="round" stroke-miterlimit="10" d="M60.803 155.652c6.76 2.663 32.021 4.846 36.962 4.919 8.122.12 15.346-.183 17.381-2.817 2.037-2.634 26.64-149.1 26.64-149.1s-77.2 131.905-81.542 145.879c-.18.575.208.983.559 1.119z"/><path fill-rule="evenodd" clip-rule="evenodd" fill="#EFEFEF" stroke="#BABABA" stroke-width=".234" stroke-linejoin="round" stroke-miterlimit="10" d="M60.575 152.247c-.496 1.95-.456 3.138.228 3.405 5.524 2.178 23.402 4.031 32.45 4.677.336-2.226 1.505-7.358 2.42-11.793 1.016-4.919.182-7.157-1.25-9.604-1.981-3.39-13.82-6.56-17.022-7.888-3.202-1.326-3.03-4.326-3.03-4.326-2.663 4.996-13.796 25.529-13.796 25.529z"/><path fill-rule="evenodd" clip-rule="evenodd" fill="#C7CDD0" d="M59.819 153.276c-.428 1.493-.393 2.401.196 2.607 4.757 1.665 20.085 3.409 27.878 3.903.289-1.704 1.365-5.957 2.153-9.352.873-3.765.156-5.478-1.076-7.351-1.707-2.594-11.904-5.021-14.661-6.036-2.758-1.018-3.87-2.796-3.87-2.796l-10.62 19.025z"/><path fill-rule="evenodd" clip-rule="evenodd" fill="#949E9D" d="M60.056 153.637c-.237.693-.403 1.683-.078 1.778 2.629.774 10.939 2.844 15.247 3.072.159-.79.815-3.119 1.251-4.697.482-1.75.086-2.546-.595-3.416-.942-1.206-6.578-2.335-8.102-2.807s-3.768-1.659-3.768-1.659l-3.955 7.729z"/><path clip-rule="evenodd" stroke="#010202" stroke-width="1.171" stroke-linecap="round" stroke-linejoin="round" stroke-miterlimit="10" d="M86.741 166.967s1.1-1.983.842-3.639c-.259-1.653-3.107-11.098-3.107-11.098s-6.969-1.281-8.215-1.475c-1.247-.191-2.234.184-2.959.685-1.674 1.162-6.569 14.263-6.569 14.263" fill="none"/><path clip-rule="evenodd" stroke="#EBF4F9" stroke-width=".469" stroke-linecap="round" stroke-miterlimit="10" d="M66.537 165.453s5.001-13.054 6.675-14.214c.724-.502 1.711-.877 2.958-.684 1.247.192 8.215 1.472 8.215 1.472" fill="none"/><path clip-rule="evenodd" stroke="#1C1C1C" stroke-width=".703" stroke-linecap="round" stroke-linejoin="round" stroke-miterlimit="10" d="M85.003 152.107s39.597 6.851 43.429 7.305c4.379.515 19.148 3.785 21.639.346" fill="none"/><path clip-rule="evenodd" stroke="#EBF4F9" stroke-width=".469" stroke-linecap="round" stroke-miterlimit="10" d="M85.003 152.142s39.597 6.853 43.429 7.303c4.379.517 19.148 3.785 21.639.346" fill="none"/><path clip-rule="evenodd" stroke="#010202" stroke-width=".937" stroke-linecap="round" stroke-linejoin="round" stroke-miterlimit="10" fill="none" d="M109.51 168.048l3.533-11.069"/><path clip-rule="evenodd" stroke="#EBF4F9" stroke-width=".469" stroke-linecap="round" stroke-miterlimit="10" fill="none" d="M109.316 168.048l3.487-10.928"/><path clip-rule="evenodd" stroke="#010202" stroke-width=".937" stroke-linecap="round" stroke-linejoin="round" stroke-miterlimit="10" fill="none" d="M127.365 168.756l2.271-9.28"/><path clip-rule="evenodd" stroke="#EBF4F9" stroke-width=".469" stroke-linecap="round" stroke-miterlimit="10" fill="none" d="M127.275 168.756l2.27-9.28"/><path clip-rule="evenodd" stroke="#010202" stroke-width=".937" stroke-linecap="round" stroke-linejoin="round" stroke-miterlimit="10" fill="none" d="M138.58 168.756l1.84-7.869"/><path clip-rule="evenodd" stroke="#EBF4F9" stroke-width=".469" stroke-linecap="round" stroke-miterlimit="10" fill="none" d="M138.415 168.756l1.84-7.869"/><path clip-rule="evenodd" stroke="#010202" stroke-width=".703" stroke-linecap="round" stroke-linejoin="round" stroke-miterlimit="10" fill="none" d="M145.374 167.869l1.739-6.522"/><path clip-rule="evenodd" stroke="#010202" stroke-width=".469" stroke-linecap="round" stroke-miterlimit="10" fill="none" d="M137.994 159.271l4.014-1.431"/><path clip-rule="evenodd" stroke="#EBF4F9" stroke-width=".469" stroke-linecap="round" stroke-miterlimit="10" fill="none" d="M137.994 159.106l4.014-1.43"/><path clip-rule="evenodd" stroke="#010202" stroke-width=".469" stroke-linecap="round" stroke-miterlimit="10" fill="none" d="M123.54 155.841l3.735-1.27"/><path clip-rule="evenodd" stroke="#EBF4F9" stroke-width=".469" stroke-linecap="round" stroke-miterlimit="10" fill="none" d="M123.54 155.676l3.735-1.269"/><path clip-rule="evenodd" stroke="#010202" stroke-width=".469" stroke-linecap="round" stroke-miterlimit="10" fill="none" d="M137.941 159.271l.474-3.92M123.251 155.979l.668-3.746"/><path clip-rule="evenodd" stroke="#EBF4F9" stroke-width=".469" stroke-linecap="round" stroke-miterlimit="10" fill="none" d="M123.114 155.979l.668-3.747"/><path clip-rule="evenodd" stroke="#010202" stroke-width=".469" stroke-linecap="round" stroke-miterlimit="10" fill="none" d="M123.251 155.778l-3.85-2.147"/><path clip-rule="evenodd" stroke="#EBF4F9" stroke-width=".469" stroke-linecap="round" stroke-miterlimit="10" fill="none" d="M123.251 155.645l-3.85-2.147"/><g fill="#1F3C6F"><path d="M59.918 180.133l.074.206.095-.203.103-.192 1.356-2.288.05-.068.058-.035.069-.011.091.002.594.025-.188 4.23-.693-.031.12-2.733.012-.166.021-.183-1.384 2.341-.121.122-.165.039-.109-.006-.162-.052-.109-.132-1.189-2.467.008.19-.003.171-.121 2.732-.693-.03.188-4.231.593.026.09.008.068.02.056.038.046.073 1.16 2.405.085.2zM64.392 178.827c.19.008.362.044.519.111.156.065.29.16.4.28.111.121.196.267.253.438.058.172.083.363.074.581l-.012.137-.03.082-.053.044-.083.009-1.855-.073c.01.311.084.541.223.689.139.15.327.229.565.239.117.005.218-.006.305-.029l.226-.081.17-.086.141-.035.075.02.055.054.2.271c-.083.091-.176.164-.278.225-.103.06-.208.105-.318.141-.109.032-.221.057-.333.067l-.328.011c-.208-.007-.401-.052-.578-.127-.177-.076-.328-.186-.456-.325-.128-.141-.225-.313-.293-.516-.068-.203-.098-.437-.087-.699.007-.204.048-.397.122-.574.073-.179.174-.332.303-.46.129-.129.285-.229.466-.3.18-.071.383-.103.607-.094zm-.006.519c-.21-.008-.377.044-.5.159-.124.114-.207.28-.248.498l1.358.053-.029-.267c-.021-.084-.058-.158-.108-.223-.05-.064-.114-.117-.193-.155-.079-.04-.172-.06-.28-.065zM67.039 178.974l-.109 3.002-.723-.027.11-3.002.722.027zm.14-.872l-.044.175-.106.14-.151.092-.183.03-.176-.042-.142-.104-.093-.147-.03-.177.044-.18.103-.143.148-.094.178-.028.18.042.145.104.095.15.032.182zM67.742 182.005l.103-3.003.442.016c.093.003.154.05.18.139l.042.237.197-.163.218-.124.244-.078.282-.018c.164.005.308.039.433.099.125.06.229.141.31.245.082.103.143.226.181.365.039.141.055.296.05.464l-.065 1.91-.722-.023.065-1.911c.006-.183-.032-.327-.113-.431-.081-.104-.207-.158-.376-.163-.125-.005-.243.02-.354.073-.111.053-.218.126-.319.22l-.073 2.172-.725-.026zM72.237 182.154l.125-4.232 1.46.043c.277.009.514.042.708.101s.353.139.476.239c.123.102.212.222.266.362.055.142.079.298.074.472-.003.099-.02.194-.052.283-.031.09-.08.173-.143.251-.064.075-.144.146-.24.209-.098.061-.211.112-.343.152.578.149.858.473.844.969-.005.179-.044.346-.117.495s-.176.277-.311.384c-.134.107-.297.189-.49.245-.194.058-.412.083-.659.074l-1.598-.047zm.842-1.832l-.037 1.24.799.023c.146.006.269-.008.369-.04.1-.034.18-.076.241-.135.062-.057.107-.124.136-.2l.046-.249c.003-.091-.009-.174-.037-.247-.027-.075-.071-.139-.132-.191-.061-.055-.14-.096-.237-.127-.096-.029-.214-.047-.353-.052l-.795-.022zm.016-.543l.63.017c.267.009.472-.034.613-.128.142-.094.215-.246.221-.458.007-.222-.051-.38-.173-.479-.122-.096-.315-.149-.582-.157l-.672-.021-.037 1.226zM76.743 179.278l-.049 1.909c-.005.183.034.324.116.43.082.101.208.154.378.158.125.004.242-.021.353-.074.111-.053.216-.126.316-.221l.056-2.172.723.019-.077 3.003-.442-.013c-.094-.001-.154-.046-.181-.137l-.044-.24-.197.165-.215.127-.245.079-.28.024c-.164-.005-.309-.036-.433-.096-.125-.06-.228-.141-.312-.243-.083-.104-.145-.227-.186-.368-.04-.139-.059-.293-.053-.462l.048-1.907.724.019zM81.443 182.395c-.093-.002-.154-.047-.181-.134l-.052-.293-.2.187-.225.142-.257.09-.295.027c-.164-.003-.313-.041-.449-.113-.134-.071-.25-.173-.346-.305-.096-.132-.169-.294-.218-.486-.05-.192-.071-.411-.065-.656.004-.224.039-.431.104-.62.064-.189.156-.354.271-.492.117-.138.255-.244.416-.319.159-.077.337-.111.535-.107.167.003.311.033.429.091.118.055.222.13.314.221l.035-1.587.723.017-.096 4.351-.443-.014zm-.951-.551c.15.004.278-.024.385-.086.107-.058.209-.146.304-.259l.03-1.347c-.08-.101-.167-.174-.264-.217-.095-.043-.199-.066-.31-.068-.109-.003-.208.017-.298.056-.09.037-.167.099-.23.181-.063.082-.112.186-.148.313-.036.126-.056.277-.059.451-.005.176.007.325.032.447s.063.222.115.302c.051.078.114.133.189.17.075.036.16.056.254.057zM84.777 182.458c-.094-.003-.155-.046-.182-.136l-.053-.291-.199.187-.224.144-.256.09-.295.028c-.165-.003-.314-.039-.449-.11-.135-.07-.251-.171-.348-.302-.097-.133-.169-.295-.22-.486-.05-.193-.073-.412-.068-.657.003-.223.038-.429.102-.619.063-.189.153-.355.269-.493.115-.139.253-.246.413-.323.159-.074.337-.112.535-.108.167.003.311.033.429.089.118.055.223.127.316.22l.027-1.587.724.015-.076 4.348-.445-.009zm-.954-.547c.15.004.279-.028.385-.088.107-.06.208-.147.304-.261l.024-1.348c-.081-.099-.168-.171-.265-.214-.096-.044-.199-.066-.311-.068-.11-.001-.208.018-.298.057-.089.04-.166.1-.229.182-.063.084-.112.188-.147.314-.036.128-.055.278-.058.451-.003.175.008.325.034.446.026.123.065.223.116.303.051.077.115.134.191.169.076.036.16.055.254.057zM87.053 183.315l-.085.115-.157.036-.539-.006.577-1.195-1.18-2.797.633.008.133.041.069.095.621 1.566.053.159.04.164.054-.162.062-.161.623-1.547.079-.095.122-.037.58.007-1.685 3.809zM88.554 182.109l.035-.172.095-.14.143-.093.175-.033.173.037.139.095.093.142.033.173-.036.174-.096.138-.142.092-.173.031-.175-.035-.141-.093-.092-.14-.031-.176zM90.943 178.646l-.039.177-.103.143-.148.098-.182.034-.177-.037-.145-.099-.097-.146-.036-.176.038-.181.099-.146.146-.096.178-.037.181.039.147.098.1.148.038.181zm-.114.875l-.021 3.004-.723-.004.021-3.005.723.005zM93.405 180.118l-.061.063-.082.021-.112-.029-.139-.067-.181-.066-.238-.029c-.144 0-.256.029-.337.089-.083.062-.123.141-.123.237 0 .066.021.118.063.164l.167.115.235.092.269.085.27.107c.088.039.166.091.235.153.069.062.125.136.166.221.042.086.063.188.063.311 0 .145-.027.278-.08.399-.054.121-.13.228-.232.316-.101.089-.227.158-.376.206-.15.05-.321.074-.514.073l-.303-.027-.284-.078-.251-.119-.204-.146.168-.274.076-.077.111-.024.128.038.138.082.186.082c.071.025.161.039.271.039l.222-.029.152-.081.088-.115.028-.137c0-.069-.021-.127-.063-.17l-.166-.119-.237-.09-.272-.088-.272-.11c-.089-.041-.168-.097-.237-.159-.069-.065-.124-.144-.166-.238-.042-.095-.063-.207-.062-.34 0-.122.025-.239.074-.351.049-.111.12-.209.216-.292.095-.083.212-.149.354-.196.142-.051.305-.075.49-.075.207.001.396.034.565.104.169.068.311.157.424.27l-.167.259z"/></g><path clip-rule="evenodd" stroke="#EBF4F9" stroke-width=".469" stroke-linecap="round" stroke-miterlimit="10" fill="none" d="M137.855 159.388l.473-3.919"/><path fill-rule="evenodd" clip-rule="evenodd" fill="#EFEEED" stroke="#BABABA" stroke-width=".703" stroke-linejoin="round" stroke-miterlimit="10" d="M138.945 159.844c.05-.133.082-.276.082-.429 0-.669-.542-1.211-1.212-1.211-.66 0-1.194.527-1.208 1.185l2.338.455zM124.379 156.597c.051-.132.082-.275.082-.427 0-.669-.542-1.212-1.212-1.212-.66 0-1.194.53-1.208 1.186l2.338.453z"/><path clip-rule="evenodd" stroke="#EBF4F9" stroke-width=".469" stroke-linecap="round" stroke-miterlimit="10" fill="none" d="M87.484 164.529l-.992 2.562"/><path fill-rule="evenodd" clip-rule="evenodd" fill="#BFBFC1" stroke="#676767" stroke-width=".703" stroke-linejoin="round" stroke-miterlimit="10" d="M139.139 145.499"/><path clip-rule="evenodd" stroke="#EBF4F9" stroke-width=".469" stroke-linecap="round" stroke-miterlimit="10" fill="none" d="M145.224 167.913l1.739-6.524"/><path fill-rule="evenodd" clip-rule="evenodd" fill="#DADCDE" stroke="#BABABA" stroke-width=".234" stroke-linejoin="round" stroke-miterlimit="10" d="M118.929 139.174s-5.853.604-14.896 0c-15.079-1.01-34.08-4.159-34.08-4.159l.258-.641s20.006 3.085 33.822 4.097c8.809.644 15.096-.139 15.096-.139l-.2.842z"/><linearGradient id="j" gradientUnits="userSpaceOnUse" x1="110.429" y1="64.768" x2="131.969" y2="64.768"><stop offset="0" stop-color="#fff"/><stop offset=".001" stop-color="#fff"/><stop offset=".224" stop-color="#E6E6E6"/><stop offset=".457" stop-color="#D5D5D5"/><stop offset=".706" stop-color="#CACACA"/><stop offset="1" stop-color="#C7C7C7"/></linearGradient><path fill-rule="evenodd" clip-rule="evenodd" fill="url(#j)" stroke="#BABABA" stroke-width=".234" stroke-linejoin="round" stroke-miterlimit="10" d="M131.969 65.865s-1.806-.554-6.199-1.384c-6.185-1.169-14.937-1.511-14.937-1.511l-.404.702s9.347.321 15.22 1.393c3.167.578 4.887 1.06 6.173 1.5l.147-.7z"/><path fill-rule="evenodd" clip-rule="evenodd" fill="#E3E6DD" stroke="#676767" stroke-width=".234" stroke-linecap="round" stroke-miterlimit="10" d="M51.176 161.057c1.311.811 2.556 1.252 4.556 1.586M51.041 161.598c1.311.809 2.42 1.169 4.421 1.503"/><path fill-rule="evenodd" clip-rule="evenodd" fill="#EDEDED" stroke="#7C7C7C" stroke-width=".234" stroke-linejoin="round" stroke-miterlimit="10" d="M135.096 165.84l-1.279.016-1.434-2.572 1.127-.078z"/><path clip-rule="evenodd" stroke="#949E9D" stroke-width=".469" stroke-miterlimit="10" fill="none" d="M54.869 158.689l5.216-3.469"/></svg>